<?xml version="1.0" standalone="no"?>
<!DOCTYPE svg PUBLIC "-//W3C//DTD SVG 20010904//EN"
 "http://www.w3.org/TR/2001/REC-SVG-20010904/DTD/svg10.dtd">
<svg version="1.0" xmlns="http://www.w3.org/2000/svg"
 width="244.000000pt" height="244.000000pt" viewBox="0 0 244.000000 244.000000"
 preserveAspectRatio="xMidYMid meet">
<metadata>
Created by potrace 1.14, written by Peter Selinger 2001-2017
</metadata>
<g transform="translate(0.000000,244.000000) scale(0.100000,-0.100000)"
fill="#000000" stroke="none">
<path d="M280 2250 c-20 -20 -20 -33 -20 -893 l0 -874 23 -21 23 -22 920 0
921 0 21 23 22 23 0 870 0 871 -23 21 -23 22 -922 0 c-909 0 -922 0 -942 -20z
m573 -424 c197 -149 363 -271 367 -271 8 0 310 225 626 468 63 48 117 87 119
87 3 0 5 -74 5 -164 l0 -164 -242 -188 c-133 -104 -268 -209 -300 -233 l-58
-44 0 -311 0 -312 -69 -57 c-38 -31 -75 -57 -81 -57 -6 0 -43 26 -81 57 l-69
57 0 310 0 311 -228 177 c-125 98 -260 203 -299 234 l-73 55 0 165 c0 130 3
164 13 158 6 -4 173 -129 370 -278z m1117 -742 c0 -478 -1 -506 -17 -500 -10
4 -78 39 -150 79 l-133 72 0 315 0 315 148 112 c81 61 148 112 150 112 1 1 2
-227 2 -505z m-1344 389 l143 -108 0 -316 1 -315 -141 -77 c-77 -42 -145 -77
-150 -77 -5 0 -9 208 -9 500 0 275 3 500 6 500 4 0 71 -48 150 -107z"/>
<path d="M303 325 c-53 -37 -48 -151 7 -180 43 -22 77 -19 107 11 20 20 23 28
12 34 -8 6 -18 2 -27 -11 -7 -11 -25 -19 -41 -19 -51 0 -80 59 -56 116 18 43
49 52 86 25 38 -28 53 -28 38 2 -7 12 -17 25 -23 29 -19 13 -81 9 -103 -7z"/>
<path d="M580 237 l0 -103 48 2 c75 2 82 3 82 14 0 6 -22 10 -50 10 l-50 0 0
90 c0 73 -3 90 -15 90 -12 0 -15 -18 -15 -103z"/>
<path d="M860 318 c-26 -29 -34 -59 -27 -106 15 -91 131 -112 173 -31 21 41
13 103 -17 135 -31 33 -99 34 -129 2z m101 -17 c32 -26 34 -105 5 -127 -72
-52 -146 57 -81 121 29 30 45 31 76 6z"/>
<path d="M1133 328 c2 -8 16 -12 35 -10 l32 4 0 -97 c0 -73 3 -96 13 -93 8 3
13 34 15 96 l3 92 31 -3 c18 -1 33 3 35 11 4 9 -17 12 -82 12 -65 0 -86 -3
-82 -12z"/>
<path d="M1429 333 c0 -5 -2 -50 -2 -100 -2 -66 2 -94 11 -98 8 -3 12 10 12
45 l0 50 55 0 55 0 0 -51 c0 -34 4 -49 12 -47 18 6 19 208 1 208 -9 0 -13 -13
-13 -39 0 -38 -1 -39 -45 -45 -25 -4 -49 -4 -55 -1 -5 3 -10 24 -10 46 0 21
-4 39 -10 39 -5 0 -10 -3 -11 -7z"/>
<path d="M1742 238 l3 -103 67 0 c48 0 68 4 68 13 0 8 -18 12 -55 12 l-55 0 0
35 0 35 50 0 c38 0 50 4 50 15 0 13 -9 15 -50 9 l-50 -7 0 32 c0 22 5 31 18
33 9 1 28 2 42 3 14 2 31 3 38 4 6 0 12 6 12 11 0 6 -30 10 -70 10 l-71 0 3
-102z"/>
<path d="M2032 328 c-11 -14 -15 -33 -13 -59 1 -10 23 -25 57 -39 45 -19 54
-27 52 -44 -4 -27 -58 -35 -81 -12 -15 16 -37 22 -37 10 0 -20 25 -44 53 -49
46 -9 85 9 93 41 9 37 -5 56 -57 75 -35 13 -44 22 -44 40 0 32 36 37 62 10 12
-13 23 -17 32 -12 11 7 9 13 -8 30 -24 24 -92 29 -109 9z"/>
</g>
</svg>
